<svg width="73" height="78" viewBox="0 0 73 78" fill="none" xmlns="http://www.w3.org/2000/svg">
<rect width="73" height="78" fill="black"/>
<path d="M45.3895 19.8522C45.979 20.0951 46.5198 20.3803 47.0202 20.7309C47.232 20.8793 47.3632 20.8415 47.5194 20.6735C47.7123 20.466 47.9162 20.2687 48.1193 20.0711C48.498 19.7027 49.0273 19.6756 49.346 20.0047C49.6791 20.3486 49.6597 20.813 49.2759 21.1991C49.0385 21.438 48.7777 21.6536 48.5449 21.8638C52.2138 26.249 52.4128 30.716 49.2022 35.3834C49.2816 35.5258 49.4475 35.6542 49.5984 35.7915C49.7603 35.9387 49.7568 36.0614 49.5924 36.1919C49.353 36.3819 49.2309 36.6201 49.2768 36.9327C49.3075 37.1414 49.2189 37.2187 49.0029 37.2238C48.3629 37.2389 48.3802 37.2498 48.2875 37.8931C47.9273 40.3939 46.7648 42.4554 44.8473 44.0928C44.3908 44.4827 43.9011 44.8315 43.3693 45.112C43.1435 45.231 43.1253 45.3443 43.231 45.5727C44.4391 48.1836 45.6404 50.7977 46.8306 53.4168C47.1297 54.075 46.691 54.703 46.0181 54.6197C45.6947 54.5797 45.4918 54.3818 45.3604 54.0953C44.906 53.1048 44.4415 52.1188 44.0008 51.1222C43.8818 50.8531 43.7303 50.7583 43.4334 50.7593C40.1408 50.7704 36.8481 50.771 33.5555 50.76C33.2458 50.759 33.0886 50.861 32.966 51.1396C32.5357 52.117 32.0851 53.0854 31.6355 54.054C31.3953 54.5714 30.9404 54.7654 30.4967 54.555C30.0572 54.3465 29.9263 53.8751 30.166 53.3526C31.3477 50.7773 32.5253 48.2002 33.719 45.6305C33.8498 45.349 33.8042 45.2293 33.5424 45.074C30.6793 43.3749 29.071 40.8456 28.6341 37.5612C28.5984 37.2929 28.5066 37.1982 28.2494 37.2179C28.0517 37.2331 27.8478 37.2316 27.7373 37.017C27.617 36.783 27.7509 36.5089 28.0106 36.4667C28.1172 36.4495 28.2281 36.4568 28.337 36.4568C35.0968 36.4566 41.8566 36.4569 48.6163 36.457C48.7548 36.4571 48.8932 36.457 49.0151 36.457C49.0661 36.3339 48.9933 36.3013 48.9505 36.2597C45.764 33.1565 42.5774 30.0535 39.3893 26.9521C37.6624 25.2722 35.9327 23.5951 34.2048 21.9162C34.1424 21.8555 34.0782 21.7946 34.0272 21.7248C33.904 21.5561 33.8857 21.3761 34.0368 21.2187C34.1941 21.0548 34.3738 21.0552 34.5701 21.1737C34.7287 21.2696 34.7979 21.5488 35.0272 21.4698C35.1932 21.4126 35.3242 21.2544 35.4713 21.142C37.3618 19.6973 39.5044 19.0142 41.8747 19.0777C43.0808 19.1099 44.2509 19.3669 45.3895 19.8522ZM36.8501 49.1527C38.9044 49.1527 40.9587 49.1527 43.0153 49.1527C43.0153 49.067 43.0256 49.0308 43.0138 49.0049C42.5697 48.0344 42.1216 47.0657 41.6797 46.0942C41.5973 45.913 41.477 45.9455 41.3304 45.9875C39.4527 46.5254 37.5728 46.5497 35.6946 45.9939C35.4696 45.9273 35.3451 45.961 35.242 46.1956C34.8652 47.0531 34.4642 47.8999 34.0755 48.7521C34.0278 48.8568 33.9494 48.9582 34.0068 49.1527C34.9221 49.1527 35.8534 49.1527 36.8501 49.1527Z" fill="white" fill-opacity="0.33"/>
<path d="M36.549 32.3621C36.7245 32.6522 36.8894 32.9194 37.2684 32.9838C37.2441 32.7727 37.1333 32.6218 37.0535 32.4616C36.7863 31.9249 36.528 31.3884 36.4293 30.7863C36.2481 29.6809 37.0498 28.3879 38.0714 27.9269C38.1217 27.9463 38.1302 27.9918 38.1227 28.0331C37.9321 29.0836 38.2665 29.9888 38.9029 30.8028C39.2425 31.2372 39.5287 31.6954 39.6485 32.2393C39.912 33.4364 39.5291 34.4268 38.658 35.2493C38.2693 35.6163 37.8335 35.9185 37.3286 36.1353C37.1619 35.9251 37.1345 35.679 37.0259 35.4705C36.7074 34.8596 36.3109 34.3006 35.915 33.7398C35.1494 32.6552 35.1348 31.5115 35.8656 30.4565C35.9015 30.4046 35.9258 30.3375 36.0599 30.3209C36.1606 31.0052 36.1905 31.7152 36.549 32.3621ZM37.9382 30.9395C37.7771 30.6052 37.6161 30.271 37.4346 29.8941C37.3691 30.9304 37.9372 31.6616 38.4456 32.5117C38.4794 31.8782 38.1727 31.4452 37.9382 30.9395Z" fill="white" fill-opacity="0.33"/>
<path d="M35.4747 30.4273C35.1415 30.7472 34.7836 30.9864 34.3399 31.1947C34.0696 30.275 33.4098 29.6221 32.9854 28.8301C32.577 28.0682 32.6826 27.3148 33.1316 26.5968C33.1704 26.5348 33.2009 26.4573 33.3238 26.4528C33.4954 27.2226 33.4507 28.1046 34.2886 28.6398C34.3307 28.4571 34.2433 28.3677 34.1961 28.2697C33.9741 27.8095 33.7238 27.3645 33.6421 26.8451C33.5005 25.9448 34.1037 24.8408 34.9655 24.4711C35.0622 24.5196 35.0155 24.6043 35.0077 24.6722C34.9125 25.5025 35.1813 26.2181 35.693 26.8569C36.1702 27.4528 36.4157 28.1195 36.3152 28.8903C36.2356 29.5013 35.9305 29.9931 35.4747 30.4273ZM34.9254 27.6123C35.0295 27.7863 35.1337 27.9602 35.2378 28.1342C35.2156 27.3967 34.743 26.8471 34.4963 26.2051C34.4322 26.7221 34.6329 27.1572 34.9254 27.6123Z" fill="white" fill-opacity="0.33"/>
<path d="M32.9166 35.4125C31.8746 34.536 31.7475 33.4426 32.5458 32.3679C33.0334 31.7116 33.1365 31.3615 33.1087 30.4573C33.5635 30.5457 34.1292 31.2515 34.2154 31.8184C34.3143 32.4699 34.0058 33.0191 33.8043 33.6031C34.3792 33.237 34.3156 32.5912 34.4627 32.0394C34.8539 32.2065 35.037 33.1226 34.9012 33.5775C34.8414 33.7776 34.7669 33.9715 34.6473 34.1415C34.2719 34.6752 33.8853 35.2015 33.6559 35.8306C33.3574 35.7672 33.1571 35.5773 32.9166 35.4125ZM33.4814 32.3272C33.5134 32.2057 33.5583 32.0849 33.4936 31.915C33.294 32.341 33.0456 32.7056 32.9749 33.1498C33.2317 32.9474 33.3614 32.6689 33.4814 32.3272Z" fill="white" fill-opacity="0.33"/>
<path d="M42.1205 20.5283C42.7352 20.764 43.2992 21.0406 43.8211 21.3808C44.042 21.5248 44.1788 21.4881 44.3417 21.325C44.5428 21.1238 44.7555 20.9324 44.9673 20.7407C45.3622 20.3833 45.9141 20.3569 46.2465 20.6762C46.5939 21.0099 46.5737 21.4604 46.1735 21.835C45.9259 22.0668 45.6538 22.2759 45.4111 22.4798C49.2373 26.7341 49.4448 31.0678 46.0966 35.5959C46.1794 35.734 46.3524 35.8586 46.5097 35.9918C46.6786 36.1346 46.6749 36.2537 46.5035 36.3802C46.2538 36.5646 46.1265 36.7957 46.1744 37.0989C46.2063 37.3014 46.114 37.3764 45.8888 37.3814C45.2213 37.396 45.2393 37.4065 45.1427 38.0307C44.767 40.4568 43.5548 42.4568 41.5551 44.0453C41.079 44.4235 40.5683 44.762 40.0137 45.034C39.7782 45.1496 39.7593 45.2594 39.8695 45.481C41.1294 48.014 42.3822 50.5501 43.6234 53.091C43.9353 53.7295 43.4777 54.3388 42.776 54.258C42.4387 54.2191 42.2271 54.0271 42.0901 53.7492C41.6162 52.7883 41.1319 51.8317 40.6723 50.8649C40.5482 50.6038 40.3902 50.5119 40.0806 50.5128C36.6468 50.5236 33.213 50.5242 29.7793 50.5135C29.4563 50.5125 29.2924 50.6115 29.1645 50.8818C28.7158 51.8299 28.2459 52.7694 27.777 53.7092C27.5266 54.2111 27.0521 54.3993 26.5894 54.1952C26.131 53.9929 25.9946 53.5356 26.2446 53.0287C27.4769 50.5303 28.705 48.03 29.9498 45.5371C30.0862 45.264 30.0387 45.1479 29.7657 44.9972C26.7799 43.3488 25.1026 40.895 24.647 37.7087C24.6097 37.4484 24.514 37.3565 24.2458 37.3756C24.0396 37.3904 23.8269 37.3889 23.7118 37.1807C23.5863 36.9537 23.7259 36.6878 23.9968 36.6469C24.1079 36.6301 24.2236 36.6373 24.3372 36.6373C31.3867 36.6371 38.4361 36.6373 45.4856 36.6375C45.63 36.6375 45.7743 36.6375 45.9014 36.6375C45.9547 36.518 45.8787 36.4864 45.8341 36.446C42.5111 33.4354 39.1878 30.4251 35.8631 27.4163C34.0622 25.7865 32.2584 24.1594 30.4565 22.5307C30.3914 22.4718 30.3244 22.4127 30.2712 22.345C30.1428 22.1813 30.1237 22.0067 30.2813 21.854C30.4453 21.695 30.6327 21.6953 30.8374 21.8104C31.0028 21.9033 31.075 22.1743 31.314 22.0976C31.4871 22.0421 31.6238 21.8887 31.7772 21.7796C33.7488 20.3781 35.9831 19.7153 38.455 19.7769C39.7128 19.8082 40.933 20.0575 42.1205 20.5283ZM33.2151 48.9542C35.3574 48.9542 37.4998 48.9542 39.6445 48.9542C39.6445 48.871 39.6553 48.8359 39.6429 48.8108C39.1799 47.8692 38.7125 46.9295 38.2517 45.9869C38.1658 45.8112 38.0403 45.8427 37.8874 45.8835C35.9293 46.4053 33.9688 46.4288 32.01 45.8896C31.7755 45.8251 31.6456 45.8578 31.5381 46.0854C31.1451 46.9172 30.7269 47.7387 30.3216 48.5656C30.2718 48.6671 30.1901 48.7654 30.25 48.9541C31.2044 48.9541 32.1756 48.9541 33.2151 48.9542Z" fill="white"/>
<path d="M32.9011 32.6647C33.0841 32.9462 33.2561 33.2054 33.6513 33.2679C33.626 33.0631 33.5104 32.9167 33.4272 32.7613C33.1486 32.2406 32.8792 31.7201 32.7762 31.136C32.5873 30.0636 33.4234 28.8092 34.4888 28.3619C34.5412 28.3808 34.5501 28.4249 34.5423 28.465C34.3434 29.4841 34.6922 30.3623 35.3559 31.152C35.7101 31.5735 36.0085 32.0179 36.1334 32.5457C36.4083 33.707 36.0089 34.6678 35.1005 35.4657C34.6951 35.8219 34.2406 36.115 33.7141 36.3253C33.5402 36.1214 33.5117 35.8827 33.3984 35.6804C33.0663 35.0877 32.6528 34.5454 32.2399 34.0014C31.4415 32.9491 31.4262 31.8396 32.1884 30.8161C32.2258 30.7657 32.2512 30.7006 32.3911 30.6845C32.496 31.3484 32.5272 32.0372 32.9011 32.6647ZM34.3498 31.2846C34.1819 30.9603 34.014 30.636 33.8247 30.2705C33.7563 31.2758 34.3487 31.9852 34.879 32.8099C34.9142 32.1954 34.5944 31.7752 34.3498 31.2846Z" fill="white"/>
<path d="M31.7808 30.7877C31.4333 31.0981 31.0601 31.3301 30.5973 31.5322C30.3155 30.64 29.6274 30.0066 29.1848 29.2382C28.7589 28.499 28.869 27.7681 29.3373 27.0716C29.3777 27.0114 29.4096 26.9362 29.5377 26.9319C29.7167 27.6787 29.6701 28.5343 30.5439 29.0536C30.5877 28.8763 30.4967 28.7896 30.4474 28.6945C30.2159 28.248 29.9549 27.8164 29.8697 27.3125C29.722 26.439 30.3511 25.368 31.2497 25.0093C31.3506 25.0563 31.3019 25.1385 31.2938 25.2044C31.1945 26.0099 31.4748 26.7042 32.0084 27.3239C32.5061 27.902 32.7622 28.5488 32.6574 29.2966C32.5743 29.8894 32.2562 30.3665 31.7808 30.7877ZM31.2079 28.0567C31.3166 28.2255 31.4252 28.3943 31.5338 28.5631C31.5106 27.8476 31.0177 27.3144 30.7605 26.6916C30.6936 27.1931 30.9029 27.6153 31.2079 28.0567Z" fill="white"/>
<path d="M29.113 35.6241C28.0263 34.7737 27.8937 33.713 28.7263 32.6704C29.2348 32.0336 29.3423 31.694 29.3134 30.8168C29.7876 30.9025 30.3776 31.5873 30.4674 32.1373C30.5706 32.7693 30.2489 33.3022 30.0387 33.8687C30.6383 33.5136 30.5719 32.887 30.7254 32.3516C31.1333 32.5138 31.3243 33.4025 31.1826 33.8438C31.1203 34.038 31.0426 34.2261 30.9179 34.391C30.5264 34.9088 30.1232 35.4194 29.884 36.0297C29.5727 35.9682 29.3638 35.784 29.113 35.6241ZM29.702 32.6309C29.7354 32.513 29.7822 32.3959 29.7148 32.2309C29.5065 32.6443 29.2475 32.998 29.1738 33.429C29.4416 33.2326 29.5768 32.9624 29.702 32.6309Z" fill="white"/>
<line x1="17.7285" y1="58.5" x2="56.3142" y2="58.5" stroke="white"/>
</svg>
